<svg xmlns="http://www.w3.org/2000/svg" viewBox="0 0 512 512">
  <defs>
    <linearGradient id="g" x1="0" y1="0" x2="1" y2="1">
      <stop offset="0%" stop-color="#2563eb"/>
      <stop offset="100%" stop-color="#7c3aed"/>
    </linearGradient>
  </defs>
  <rect width="512" height="512" rx="112" fill="url(#g)"/>
  <path d="M151 342c32 24 70 36 113 36 69 0 113-34 113-88 0-47-30-73-95-87l-37-8c-30-7-43-17-43-34 0-20 19-33 50-33 35 0 63 11 90 33l30-47c-32-27-72-41-119-41-66 0-110 35-110 88 0 45 30 73 90 86l39 9c33 7 45 18 45 36 0 21-21 34-55 34-39 0-70-12-100-37l-31 53z" fill="white"/>
</svg>
